<?xml version="1.0" encoding="UTF-8" standalone="no"?>
<!-- Created with Inkscape (http://www.inkscape.org/) -->

<svg
   version="1.1"
   id="svg1"
   width="797"
   height="797"
   viewBox="0 0 797 797"
   sodipodi:docname="BG_CROQUIS_3.svg"
   inkscape:version="1.4.3 (0d15f75, 2025-12-25)"
   xmlns:inkscape="http://www.inkscape.org/namespaces/inkscape"
   xmlns:sodipodi="http://sodipodi.sourceforge.net/DTD/sodipodi-0.dtd"
   xmlns="http://www.w3.org/2000/svg"
   xmlns:svg="http://www.w3.org/2000/svg">
  <defs
     id="defs1" />
  <sodipodi:namedview
     id="namedview1"
     pagecolor="#ffffff"
     bordercolor="#000000"
     borderopacity="0.25"
     inkscape:showpageshadow="2"
     inkscape:pageopacity="0.0"
     inkscape:pagecheckerboard="0"
     inkscape:deskcolor="#d1d1d1"
     inkscape:zoom="1.0225847"
     inkscape:cx="398.5"
     inkscape:cy="398.5"
     inkscape:window-width="1920"
     inkscape:window-height="1017"
     inkscape:window-x="1912"
     inkscape:window-y="-8"
     inkscape:window-maximized="1"
     inkscape:current-layer="g1" />
  <g
     inkscape:groupmode="layer"
     inkscape:label="Image"
     id="g1">
    <path
       style="opacity:0.5;fill:#ffffff;stroke:#ffffff;stroke-width:4;stroke-linejoin:round;paint-order:markers fill stroke"
       d="m 211.59585,243.05863 c -17.03212,0.28766 -33.4675,-2.85008 -48.75003,7.60639 -40.55827,27.7504 -8.49065,124.77276 43.56386,115.13303 53.89863,-9.98123 58.89352,-110.80445 5.18617,-122.73942 z"
       id="path1"
       inkscape:label="11" />
    <path
       style="opacity:0.5;fill:#ffffff;stroke:#ffffff;stroke-width:4;stroke-linejoin:round;paint-order:markers fill stroke"
       d="m 347.47357,421.46297 c 7.40008,-13.85266 5.8438,-33.08068 8.98937,-45.98406 4.11157,-16.86597 -4.84582,-42.92235 -15.55852,-57.39365 -24.20615,-32.69898 -69.45179,-17.94178 -80.90429,18.32448 -13.01628,41.21821 5.55943,105.00372 58.08513,97.50005 10.90629,-1.55804 21.14524,-5.11364 26.9681,-12.10107 z"
       id="path2"
       sodipodi:nodetypes="csssscc"
       inkscape:label="12" />
    <path
       style="opacity:0.5;fill:#ffffff;stroke:#ffffff;stroke-width:4;stroke-linejoin:round;paint-order:markers fill stroke"
       d="m 450.50554,273.13843 c -16.5369,-2.58198 -35.21044,-1.17099 -51.17024,4.14894 -44.64792,14.88264 -15.33621,73.72121 21.09044,71.56918 44.77329,-2.64513 64.34021,-68.71553 30.0798,-75.71812 z"
       id="path4"
       sodipodi:nodetypes="cssc"
       inkscape:label="13" />
    <path
       style="opacity:0.5;fill:#ffffff;stroke:#ffffff;stroke-width:4;stroke-linejoin:round;paint-order:markers fill stroke"
       d="m 364.06933,363.03209 c -1.86873,3.52042 -4.49469,17.12108 -4.49469,25.93087 0,7.83322 -0.95316,17.42735 3.11171,24.20214 11.78479,19.64132 65.35219,2.23771 74.68088,-11.75533 5.05669,-7.58503 5.97601,-19.72507 3.8032,-28.35108 -7.34561,-29.16188 -54.57012,-21.08994 -77.1011,-10.0266 z"
       id="path3"
       sodipodi:nodetypes="cssssc"
       inkscape:label="14" />
    <path
       style="opacity:0.5;fill:#ffffff;stroke:#ffffff;stroke-width:4;stroke-linejoin:round;paint-order:markers fill stroke"
       d="m 476.4364,302.87249 c -0.37453,3.77968 -9.49871,15.49917 -12.44681,23.1649 -32.54018,84.61192 79.07038,85.64323 99.57452,32.15427 16.84784,-43.95081 -62.89415,-72.62886 -87.12771,-55.31917 z"
       id="path6"
       sodipodi:nodetypes="cssc"
       inkscape:label="15" />
    <path
       style="opacity:0.5;fill:#ffffff;stroke:#ffffff;stroke-width:4;stroke-linejoin:round;paint-order:markers fill stroke"
       d="m 475.05342,395.87785 c 5.14675,-0.20615 18.08998,2.311 26.62236,7.26064 11.31815,6.56566 -1.73853,19.6791 -11.40958,30.42555 -12.49744,13.88713 -38.82641,32.98798 -58.77663,30.77129 -33.02653,-3.66961 -60.63082,-27.76972 -18.67022,-48.75002 7.73354,-3.86677 14.81776,-8.84123 23.16491,-11.40958 8.83569,-2.71867 17.50641,-7.14256 26.2766,-9.33511 4.44935,-0.74518 10.27195,-3.37385 12.79256,1.03723 z"
       id="path5"
       sodipodi:nodetypes="cssssscc"
       inkscape:label="16" />
    <path
       style="opacity:0.5;fill:#ffffff;stroke:#ffffff;stroke-width:4;stroke-linejoin:round;paint-order:markers fill stroke"
       d="m 516.19706,409.70765 c -11.38816,18.58977 -29.50149,29.01324 -33.1915,44.25534 -10.0556,41.53609 72.39004,34.82189 83.67025,7.60638 13.70742,-33.07158 -11.47655,-85.3196 -50.47875,-51.86172 z"
       id="path7"
       sodipodi:nodetypes="cssc"
       inkscape:label="17" />
    <path
       style="opacity:0.5;fill:#ffffff;stroke:#ffffff;stroke-width:4;stroke-linejoin:round;paint-order:markers fill stroke"
       d="m 575.31943,410.74488 c 1.81236,19.76057 -7.31257,65.34492 16.9415,76.06387 11.3563,5.01885 23.74814,0.95391 35.26597,-0.69149 37.73984,-5.39141 67.67044,-26.21123 33.19151,-65.00003 -7.58347,-8.53141 -16.13975,-16.25231 -26.62236,-21.09044 -10.21472,-4.71449 -61.23265,-8.93019 -58.77662,10.71809 z"
       id="path8"
       sodipodi:nodetypes="cssssc"
       inkscape:label="18" />
  </g>
</svg>
