<?xml version="1.0" encoding="UTF-8" standalone="no"?>
<!-- Created with Inkscape (http://www.inkscape.org/) -->

<svg
   version="1.1"
   id="svg1"
   width="797"
   height="797"
   viewBox="0 0 797 797"
   sodipodi:docname="BG_CROQUIS_1.svg"
   inkscape:version="1.4.3 (0d15f75, 2025-12-25)"
   xmlns:inkscape="http://www.inkscape.org/namespaces/inkscape"
   xmlns:sodipodi="http://sodipodi.sourceforge.net/DTD/sodipodi-0.dtd"
   xmlns="http://www.w3.org/2000/svg"
   xmlns:svg="http://www.w3.org/2000/svg">
  <defs
     id="defs1" />
  <sodipodi:namedview
     id="namedview1"
     pagecolor="#ffffff"
     bordercolor="#000000"
     borderopacity="0.25"
     inkscape:showpageshadow="2"
     inkscape:pageopacity="0.0"
     inkscape:pagecheckerboard="0"
     inkscape:deskcolor="#d1d1d1"
     inkscape:zoom="1.0225847"
     inkscape:cx="398.5"
     inkscape:cy="398.5"
     inkscape:window-width="1920"
     inkscape:window-height="1017"
     inkscape:window-x="1912"
     inkscape:window-y="-8"
     inkscape:window-maximized="1"
     inkscape:current-layer="g1" />
  <g
     inkscape:groupmode="layer"
     inkscape:label="Image"
     id="g1">
    <path
       style="opacity:0.5;fill:#ffffff;stroke:#ffffff;stroke-width:4;stroke-linejoin:round;paint-order:markers fill stroke"
       d="m 152.47348,209.86712 c -8.27635,-4.53488 -17.79234,-2.34805 -26.9681,-1.03723 -9.5613,1.3659 -20.2722,5.03126 -26.622353,12.79256 -16.025523,19.58675 -5.047766,99.5494 24.202143,107.52665 66.86744,18.23657 54.91196,-89.50439 29.38831,-119.28198 z"
       id="path1"
       inkscape:label="1" />
    <path
       style="opacity:0.5;fill:#ffffff;stroke:#ffffff;stroke-width:4;stroke-linejoin:round;paint-order:markers fill stroke"
       d="m 365.79805,352.314 c -3.00575,-2.58476 -18.58054,-1.52812 -27.31384,1.38298 -53.71127,17.90376 -10.72779,113.88092 37.34044,107.87239 49.26726,-6.1584 42.91051,-43.74348 18.67022,-76.06386 -3.2723,-4.36308 -20.7117,-47.16547 -28.69682,-33.19151 z"
       id="path2"
       inkscape:label="2" />
    <path
       style="opacity:0.5;fill:#ffffff;stroke:#ffffff;stroke-width:4;stroke-linejoin:round;paint-order:markers fill stroke"
       d="m 397.95232,344.70762 c -34.2768,32.43107 51.86084,98.98373 73.64366,48.05853 19.4391,-45.44591 -63.46554,-34.19947 -73.64366,-48.05853 z"
       id="path3"
       sodipodi:nodetypes="csc"
       inkscape:label="3" />
    <path
       style="opacity:0.5;fill:#ffffff;stroke:#ffffff;stroke-width:4;stroke-linejoin:round;paint-order:markers fill stroke"
       d="m 396.91509,270.71822 c -12.23726,0.0207 -23.69876,10.43329 -26.62236,22.12767 -6.11327,24.45309 39.00264,67.6951 63.27131,51.51598 26.32029,-17.54686 29.31654,-77.44685 -10.0266,-77.44685 -8.25095,0 -16.24823,2.42022 -23.85639,2.42022 -0.92199,0.46099 -1.84397,0.92199 -2.76596,1.38298 z"
       id="path4"
       inkscape:label="4" />
    <path
       style="opacity:0.5;fill:#ffffff;stroke:#ffffff;stroke-width:4;stroke-linejoin:round;paint-order:markers fill stroke"
       d="m 406.59594,471.59598 c -11.03759,4.14205 -21.70895,0.55666 -31.46278,9.33511 -9.27051,8.34345 -13.14051,18.63048 -12.44681,31.11703 5.31755,95.71599 161.66593,22.38563 76.40961,-30.0798 -9.2367,-5.68412 -20.2439,-5.62727 -29.73406,-10.37234 -0.92199,0 -1.84397,0 -2.76596,0 z"
       id="path5"
       inkscape:label="5" />
    <path
       style="opacity:0.5;fill:#ffffff;stroke:#ffffff;stroke-width:4;stroke-linejoin:round;paint-order:markers fill stroke"
       d="m 629.04325,229.56534 c -19.46374,-7.67839 -40.86002,2.36625 -57.69693,12.4684 -52.59601,31.55761 -23.92578,128.205 39.36104,120.03896 75.18974,-9.7019 64.9906,-120.84369 18.33589,-132.50736 z"
       id="path6"
       inkscape:label="6" />
  </g>
</svg>
